<?xml version="1.0" encoding="UTF-8" standalone="no"?>
<!-- Created with Inkscape (http://www.inkscape.org/) -->
<svg
   xmlns:dc="http://purl.org/dc/elements/1.1/"
   xmlns:cc="http://web.resource.org/cc/"
   xmlns:rdf="http://www.w3.org/1999/02/22-rdf-syntax-ns#"
   xmlns:svg="http://www.w3.org/2000/svg"
   xmlns="http://www.w3.org/2000/svg"
   xmlns:xlink="http://www.w3.org/1999/xlink"
   xmlns:sodipodi="http://sodipodi.sourceforge.net/DTD/sodipodi-0.dtd"
   xmlns:inkscape="http://www.inkscape.org/namespaces/inkscape"
   width="64px"
   height="64px"
   id="svg1872"
   sodipodi:version="0.32"
   inkscape:version="0.45.1"
   sodipodi:docbase="/home/replaced/Contribution/Quickening/scalable/filesystems"
   sodipodi:docname="gnome-fs-trash-full.svg"
   inkscape:output_extension="org.inkscape.output.svg.inkscape">
  <defs
     id="defs1874">
    <radialGradient
       inkscape:collect="always"
       xlink:href="#linearGradient6269"
       id="radialGradient10391"
       cx="34.876816"
       cy="20.298576"
       fx="34.876816"
       fy="20.298576"
       r="18.876816"
       gradientTransform="matrix(1.0330141,0,0,0.2687932,-1.5086055,6.1536969)"
       gradientUnits="userSpaceOnUse"
       spreadMethod="pad" />
    <linearGradient
       id="linearGradient6269">
      <stop
         id="stop6271"
         offset="0"
         style="stop-color:#ffffff;stop-opacity:1;" />
      <stop
         id="stop6273"
         offset="1"
         style="stop-color:#666666;stop-opacity:1;" />
    </linearGradient>
    <linearGradient
       id="linearGradient5769">
      <stop
         style="stop-color:#323232;stop-opacity:1;"
         offset="0"
         id="stop5771" />
      <stop
         id="stop5773"
         offset="0.5"
         style="stop-color:#464646;stop-opacity:1;" />
      <stop
         style="stop-color:#5a5a5a;stop-opacity:1;"
         offset="0.75"
         id="stop5777" />
      <stop
         style="stop-color:#5a5a5a;stop-opacity:1;"
         offset="1"
         id="stop5775" />
    </linearGradient>
    <linearGradient
       id="linearGradient5753">
      <stop
         id="stop5755"
         offset="0"
         style="stop-color:#505050;stop-opacity:1;" />
      <stop
         style="stop-color:#282828;stop-opacity:1;"
         offset="0.25"
         id="stop5759" />
      <stop
         id="stop5779"
         offset="0.5"
         style="stop-color:#323232;stop-opacity:1;" />
      <stop
         id="stop5757"
         offset="1"
         style="stop-color:#505050;stop-opacity:1;" />
    </linearGradient>
    <linearGradient
       id="linearGradient11675">
      <stop
         style="stop-color:#ffffff;stop-opacity:0.18039216;"
         offset="0"
         id="stop11677" />
      <stop
         style="stop-color:#666;stop-opacity:0;"
         offset="1"
         id="stop11679" />
    </linearGradient>
    <linearGradient
       inkscape:collect="always"
       id="linearGradient4666">
      <stop
         style="stop-color:black;stop-opacity:1;"
         offset="0"
         id="stop4668" />
      <stop
         style="stop-color:black;stop-opacity:0;"
         offset="1"
         id="stop4670" />
    </linearGradient>
    <radialGradient
       inkscape:collect="always"
       xlink:href="#linearGradient4666"
       id="radialGradient5663"
       gradientUnits="userSpaceOnUse"
       gradientTransform="matrix(1.091652,0,0,0.535169,-2.96176,30.90409)"
       cx="32.272727"
       cy="32.454545"
       fx="32.272727"
       fy="32.454545"
       r="29.727272" />
    <linearGradient
       inkscape:collect="always"
       xlink:href="#linearGradient11675"
       id="linearGradient5573"
       gradientUnits="userSpaceOnUse"
       gradientTransform="matrix(0.92045,0,8.190384e-2,1.22623,2.103475,9.594132)"
       spreadMethod="pad"
       x1="33.545456"
       y1="14.514205"
       x2="33.727272"
       y2="39.727272" />
    <linearGradient
       inkscape:collect="always"
       xlink:href="#linearGradient5753"
       id="linearGradient5751"
       x1="14.61575"
       y1="9.636364"
       x2="55.020611"
       y2="9.636364"
       gradientUnits="userSpaceOnUse" />
    <linearGradient
       inkscape:collect="always"
       xlink:href="#linearGradient5769"
       id="linearGradient5767"
       x1="14.939154"
       y1="31.71875"
       x2="55.048447"
       y2="31.71875"
       gradientUnits="userSpaceOnUse"
       gradientTransform="matrix(1.0009506,0,0,0.9326127,-3.3256928e-2,3.6195601)" />
    <linearGradient
       inkscape:collect="always"
       xlink:href="#linearGradient11675"
       id="linearGradient6237"
       gradientUnits="userSpaceOnUse"
       gradientTransform="matrix(0.7614281,0,0,1.3030177,10.275483,-11.615018)"
       spreadMethod="pad"
       x1="33.545456"
       y1="14.514205"
       x2="33.727272"
       y2="39.727272" />
  </defs>
  <sodipodi:namedview
     id="base"
     pagecolor="#ffffff"
     bordercolor="#666666"
     borderopacity="1.0"
     inkscape:pageopacity="0.0"
     inkscape:pageshadow="2"
     inkscape:zoom="22"
     inkscape:cx="35.895643"
     inkscape:cy="37.642096"
     inkscape:current-layer="layer1"
     showgrid="true"
     inkscape:document-units="px"
     inkscape:grid-bbox="true"
     inkscape:window-width="1024"
     inkscape:window-height="717"
     inkscape:window-x="0"
     inkscape:window-y="26"
     showguides="true"
     inkscape:guide-bbox="true">
    <sodipodi:guide
       orientation="vertical"
       position="11.667262"
       id="guide6285" />
  </sodipodi:namedview>
  <metadata
     id="metadata1877">
    <rdf:RDF>
      <cc:Work
         rdf:about="">
        <dc:format>image/svg+xml</dc:format>
        <dc:type
           rdf:resource="http://purl.org/dc/dcmitype/StillImage" />
      </cc:Work>
    </rdf:RDF>
  </metadata>
  <g
     id="layer1"
     inkscape:label="Layer 1"
     inkscape:groupmode="layer">
    <rect
       style="opacity:1;fill:url(#radialGradient5663);fill-opacity:1;fill-rule:nonzero;stroke:none;stroke-width:0.5;stroke-linecap:round;stroke-linejoin:miter;stroke-miterlimit:4;stroke-dasharray:none;stroke-opacity:1"
       id="rect3779"
       width="63.868488"
       height="30.545454"
       x="-1.2767565e-15"
       y="33.454544" />
    <path
       style="opacity:1;fill:url(#linearGradient5767);fill-opacity:1;fill-rule:evenodd;stroke:#000000;stroke-width:1.05979156;stroke-miterlimit:4;stroke-dasharray:none;stroke-opacity:1"
       d="M 15.481477,12.945687 C 15.509868,20.26033 15.45009,27.730325 15.428423,34.880728 C 15.413454,39.820789 15.416677,44.608305 15.479735,49.086656 C 15.479735,50.09132 24.25255,53.456051 35.000013,53.45605 C 45.747476,53.45605 54.391689,50.09132 54.391688,49.086656 L 54.51855,12.945687 L 15.481477,12.945687 z "
       id="path3795"
       sodipodi:nodetypes="cscsccc" />
    <path
       sodipodi:type="arc"
       style="opacity:1;fill:url(#linearGradient5751);fill-opacity:1;fill-rule:evenodd;stroke:#000000;stroke-width:0.58667958;stroke-miterlimit:4;stroke-dasharray:none;stroke-opacity:1"
       id="path2824"
       sodipodi:cx="34.81818"
       sodipodi:cy="9.636364"
       sodipodi:rx="19.90909"
       sodipodi:ry="0.54545456"
       d="M 54.72727 9.636364 A 19.90909 0.54545456 0 1 1  14.90909,9.636364 A 19.90909 0.54545456 0 1 1  54.72727 9.636364 z"
       transform="matrix(0.9714282,0,0,5.2071348,1.1766399,-37.677846)" />
    <path
       style="fill:url(#radialGradient10391);fill-opacity:1;fill-rule:evenodd;stroke:#000000;stroke-width:0.29749671;stroke-linecap:butt;stroke-linejoin:miter;stroke-miterlimit:4;stroke-dasharray:none;stroke-opacity:1"
       d="M 15.148748,13.023082 C 15.501878,12.282585 15.269046,9.6583599 16.651313,9.6583599 C 18.203236,9.6583599 18.814761,9.6583599 20.032088,9.6583599 C 20.895461,9.6583599 21.490527,9.6583599 22.849398,9.6583599 C 24.420321,9.6583599 25.050185,11.485181 26.230173,9.6583599 C 27.631667,7.4886106 29.378275,8.4229551 31.113513,7.0413544 C 32.324559,6.0771184 33.710433,7.4748408 34.776017,7.7890709 C 35.518814,8.0081143 36.682015,10.017755 37.123777,10.530695 C 38.315212,11.914103 40.929494,9.6583599 41.819296,9.6583599 C 43.389531,9.6583599 45.007295,9.7179947 46.139174,9.0352645 C 47.35575,8.3014463 47.907144,9.6583599 48.956486,9.6583599 C 50.796311,9.6583599 51.033417,10.098146 52.337259,10.530695 C 53.207531,10.819409 53.743878,12.768439 53.839826,13.023082 C 54.204882,13.991948 52.503913,14.283319 51.773795,14.767754 C 50.425252,15.662514 50.076776,16.512422 47.829561,16.512422 C 46.139174,16.512422 44.448787,16.512422 42.758401,16.512422 C 42.368001,16.512422 39.69331,15.156629 39.377626,15.016991 C 38.445151,14.604526 37.235878,14.767754 36.184673,14.767754 C 35.057749,14.767754 33.930824,14.767754 32.803899,14.767754 C 31.739581,14.767754 30.675263,14.767754 29.610947,14.767754 C 28.396093,14.767754 27.852021,14.70987 26.683613,14.70987 C 25.335741,14.70987 24.956084,14.517861 23.778087,14.872286 C 22.606567,15.224764 21.462888,15.34898 20.628753,14.56387 C 19.532797,13.532329 18.969612,13.889154 17.568609,13.624798 C 16.77405,13.474872 15.953647,13.236703 15.148748,13.023082 z "
       id="path6239"
       sodipodi:nodetypes="csssssssssssssssssssssssc" />
    <path
       style="fill:none;fill-rule:evenodd;stroke:#000000;stroke-width:0.29749671;stroke-linecap:butt;stroke-linejoin:miter;stroke-miterlimit:4;stroke-dasharray:none;stroke-opacity:1"
       d="M 24.715869,10.359345 C 25.69379,10.522353 24.742307,11.200524 25.96018,11.200524 C 26.885771,11.200524 25.853437,12.625713 26.852329,12.758267 C 28.200337,12.937146 25.590709,13.942149 27.415792,13.942149 C 27.760129,13.942149 28.495761,14.264083 28.495761,14.72102"
       id="path7466"
       sodipodi:nodetypes="csssc" />
    <path
       style="fill:none;fill-rule:evenodd;stroke:#000000;stroke-width:0.29749671;stroke-linecap:butt;stroke-linejoin:miter;stroke-miterlimit:4;stroke-dasharray:none;stroke-opacity:1"
       d="M 37.980709,11.013595 C 38.599317,11.006004 40.115085,11.102378 40.422379,12.758267 C 40.5384,13.383454 42.910536,15.435785 43.192734,13.724064 C 43.345304,12.798642 45.187124,14.828612 44.695303,16.403381"
       id="path7468"
       sodipodi:nodetypes="cssc" />
    <path
       style="fill:none;fill-rule:evenodd;stroke:#000000;stroke-width:0.29749671;stroke-linecap:butt;stroke-linejoin:miter;stroke-miterlimit:4;stroke-dasharray:none;stroke-opacity:1"
       d="M 37.08856,10.515118 C 37.08856,11.658329 37.501189,11.547058 37.135515,12.571337 C 37.075207,12.740267 36.853785,12.571337 36.71292,12.571337 C 36.525099,12.571337 36.079025,13.537136 36.079025,13.786374 C 36.079025,14.735338 34.879306,14.689866 34.45907,14.689866 C 34.050126,14.689866 33.352708,10.328189 32.134788,10.328189 C 31.286285,10.328189 27.100157,11.231678 26.64103,11.231678 C 24.445639,11.231678 25.947263,9.7560059 23.917629,10.857819 C 23.87417,10.881414 23.401122,12.727109 23.401122,12.789419 C 23.401122,14.30056 21.217706,11.69545 21.217706,13.132123 C 21.217706,13.643282 19.456887,12.730012 19.456887,13.848684"
       id="path7470"
       sodipodi:nodetypes="csssssssssc" />
    <path
       style="fill:none;fill-rule:evenodd;stroke:#000000;stroke-width:0.29749671;stroke-linecap:butt;stroke-linejoin:miter;stroke-miterlimit:4;stroke-dasharray:none;stroke-opacity:1"
       d="M 47.172188,16.512422 C 47.172188,16.055485 46.585248,16.128179 46.585248,15.671243 C 46.585248,15.401234 46.829109,15.028988 47.266099,15.016991 C 47.818551,15.001824 47.9626,15.048146 48.792143,15.048146 C 48.987789,15.048146 49.660813,14.746981 49.660813,14.487358 C 50.816062,14.258676 50.6292,13.254799 50.928603,12.618068 C 50.928603,10.131496 49.735635,10.246515 48.580844,9.5960509"
       id="path8441"
       sodipodi:nodetypes="csssccs" />
    <path
       style="fill:url(#linearGradient6237);fill-opacity:1;fill-rule:nonzero;stroke:none;stroke-width:0.25;stroke-linecap:round;stroke-linejoin:miter;stroke-miterlimit:4;stroke-dasharray:none;stroke-opacity:1"
       d="M 23.552556,9.5909091 C 12.518869,9.5909091 17.046316,9.3575989 16.137227,9.443014 C 15.963324,9.4593533 14.832107,11.624175 15.415845,11.558806 L 14.923295,11.558806 C 14.940286,16.137221 14.931862,21.122106 14.923295,26.025904 C 15.705921,28.407054 17.464945,30.09375 19.419079,30.09375 L 50.247314,30.09375 C 52.154195,30.093749 54.050318,28.479238 54.967887,26.18993 L 55,11.558806 L 54.29352,11.422442 C 52.977269,10.713383 51.542908,9.6908836 50.344865,9.6702867 C 48.3933,9.6375165 47.582993,8.8707017 46.902864,8.6090872 C 46.58387,8.4863847 44.181931,9.2428506 43.85106,9.2306838 C 43.265148,9.2091386 39.090039,9.0147367 36.222981,8.9961494 C 36.195991,8.9959744 35.612449,7.7641668 32.40136,6.3283497 C 30.586033,5.5166384 30.799027,7.3236877 30.353947,7.3365547 C 27.846737,7.4090369 25.53393,9.5909093 23.552556,9.5909091 z "
       id="rect7221"
       sodipodi:nodetypes="csccccccccssssssc" />
  </g>
</svg>
