<?xml version="1.0" encoding="UTF-8" standalone="no"?>
<!-- Created with Inkscape (http://www.inkscape.org/) -->
<svg
   xmlns:dc="http://purl.org/dc/elements/1.1/"
   xmlns:cc="http://web.resource.org/cc/"
   xmlns:rdf="http://www.w3.org/1999/02/22-rdf-syntax-ns#"
   xmlns:svg="http://www.w3.org/2000/svg"
   xmlns="http://www.w3.org/2000/svg"
   xmlns:xlink="http://www.w3.org/1999/xlink"
   xmlns:sodipodi="http://sodipodi.sourceforge.net/DTD/sodipodi-0.dtd"
   xmlns:inkscape="http://www.inkscape.org/namespaces/inkscape"
   width="64px"
   height="64px"
   id="svg1983"
   sodipodi:version="0.32"
   inkscape:version="0.45.1"
   sodipodi:docbase="/home/replaced/Contribution/Quickening/quickening"
   sodipodi:docname="gnome-dev-cdrom_mus.svg"
   inkscape:output_extension="org.inkscape.output.svg.inkscape">
  <defs
     id="defs1985">
    <linearGradient
       inkscape:collect="always"
       xlink:href="#linearGradient11675"
       id="linearGradient12569"
       gradientUnits="userSpaceOnUse"
       gradientTransform="matrix(0.6096459,0,0,1.6488895,-1.4397256,-18.857615)"
       spreadMethod="pad"
       x1="33.545456"
       y1="14.514205"
       x2="33.727272"
       y2="39.727272" />
    <linearGradient
       id="linearGradient30620">
      <stop
         id="stop30622"
         offset="0"
         style="stop-color:#3c3c3c;stop-opacity:1;" />
      <stop
         style="stop-color:#646464;stop-opacity:1;"
         offset="0.5"
         id="stop30626" />
      <stop
         id="stop30624"
         offset="1"
         style="stop-color:#3c3c3c;stop-opacity:1;" />
    </linearGradient>
    <linearGradient
       inkscape:collect="always"
       xlink:href="#linearGradient30620"
       id="linearGradient30754"
       x1="35.090908"
       y1="8.727273"
       x2="35.454544"
       y2="53.272728"
       gradientUnits="userSpaceOnUse"
       gradientTransform="matrix(1.271063,0,0,1.1741944,-10.802853,-2.8356711)" />
    <linearGradient
       id="linearGradient21386">
      <stop
         style="stop-color:#4c4c4c;stop-opacity:1;"
         offset="0"
         id="stop21388" />
      <stop
         style="stop-color:#666666;stop-opacity:1;"
         offset="1"
         id="stop21390" />
    </linearGradient>
    <linearGradient
       id="linearGradient4666">
      <stop
         style="stop-color:black;stop-opacity:1;"
         offset="0"
         id="stop4668" />
      <stop
         id="stop5658"
         offset="0.5"
         style="stop-color:black;stop-opacity:0.66666669;" />
      <stop
         style="stop-color:black;stop-opacity:0;"
         offset="1"
         id="stop4670" />
    </linearGradient>
    <linearGradient
       id="linearGradient11675">
      <stop
         style="stop-color:white;stop-opacity:0.35294119;"
         offset="0"
         id="stop11677" />
      <stop
         style="stop-color:#666;stop-opacity:0;"
         offset="1"
         id="stop11679" />
    </linearGradient>
    <radialGradient
       inkscape:collect="always"
       xlink:href="#linearGradient4666"
       id="radialGradient4672"
       cx="32.272727"
       cy="32.454545"
       fx="32.272727"
       fy="32.454545"
       r="29.727272"
       gradientTransform="matrix(1.067278,0,0,0.513763,-2.53489,31.87156)"
       gradientUnits="userSpaceOnUse" />
    <linearGradient
       inkscape:collect="always"
       xlink:href="#linearGradient11675"
       id="linearGradient18459"
       gradientUnits="userSpaceOnUse"
       gradientTransform="matrix(1.019965,0,0,1.4535402,-1.1871485,-19.243642)"
       spreadMethod="pad"
       x1="33.545456"
       y1="14.514205"
       x2="33.727272"
       y2="39.727272" />
    <radialGradient
       inkscape:collect="always"
       xlink:href="#linearGradient21386"
       id="radialGradient21392"
       cx="32.5"
       cy="31.5"
       fx="32.5"
       fy="31.5"
       r="26.59091"
       gradientUnits="userSpaceOnUse"
       spreadMethod="reflect"
       gradientTransform="matrix(1.0000643,0,0,0.9965822,-2.0892311e-3,0.1985713)" />
  </defs>
  <sodipodi:namedview
     id="base"
     pagecolor="#ffffff"
     bordercolor="#666666"
     borderopacity="1.0"
     inkscape:pageopacity="0.0"
     inkscape:pageshadow="2"
     inkscape:zoom="1.9445436"
     inkscape:cx="32"
     inkscape:cy="22.839449"
     inkscape:current-layer="g3944"
     showgrid="true"
     inkscape:document-units="px"
     inkscape:grid-bbox="true"
     inkscape:window-width="1024"
     inkscape:window-height="719"
     inkscape:window-x="0"
     inkscape:window-y="24" />
  <metadata
     id="metadata1988">
    <rdf:RDF>
      <cc:Work
         rdf:about="">
        <dc:format>image/svg+xml</dc:format>
        <dc:type
           rdf:resource="http://purl.org/dc/dcmitype/StillImage" />
      </cc:Work>
    </rdf:RDF>
  </metadata>
  <g
     id="layer1"
     inkscape:label="Layer 1"
     inkscape:groupmode="layer">
    <rect
       style="opacity:1;fill:url(#radialGradient4672);fill-opacity:1;fill-rule:nonzero;stroke:none;stroke-width:0.5;stroke-linecap:round;stroke-linejoin:miter;stroke-miterlimit:4;stroke-dasharray:none;stroke-opacity:1"
       id="rect3779"
       width="63.454544"
       height="30.545454"
       x="0.18181814"
       y="33.272728" />
    <path
       style="fill:url(#radialGradient21392);fill-opacity:1.0;stroke:#808080;stroke-width:1.99664342;stroke-miterlimit:4;stroke-dasharray:none;stroke-opacity:1"
       d="M 32.5,5.5727018 C 18.081311,5.5727018 6.3908837,17.222423 6.3908837,31.590909 C 6.3908837,45.959395 18.081312,57.609118 32.5,57.609116 C 46.918691,57.609116 58.609118,45.959394 58.609117,31.590909 C 58.609117,17.222424 46.918691,5.572702 32.5,5.5727018 z M 32.5,24.604538 C 36.372719,24.604539 39.510782,27.731675 39.510782,31.590909 C 39.51078,35.450145 36.372721,38.57728 32.5,38.57728 C 28.627277,38.57728 25.489219,35.450145 25.489219,31.590909 C 25.48922,27.731675 28.627278,24.604538 32.5,24.604538 z "
       id="path6786" />
    <path
       style="fill:#4d4d4d;stroke:#000000;stroke-width:0.435;stroke-miterlimit:4;stroke-dasharray:none;stroke-opacity:1;fill-opacity:0.74566472"
       d="M 32.5,25.126378 C 28.981944,25.126378 26.129133,27.979807 26.129133,31.498624 C 26.129133,35.017439 28.981943,37.870864 32.5,37.870866 C 36.018055,37.870866 38.870868,35.017439 38.870868,31.498624 C 38.870868,27.979806 36.018054,25.126378 32.5,25.126378 z M 32.527461,27.378637 C 34.818692,27.378637 36.701477,29.234362 36.701477,31.526089 C 36.701476,33.817815 34.818693,35.701007 32.527461,35.701007 C 30.236228,35.701007 28.380905,33.817815 28.380905,31.526089 C 28.380906,29.234362 30.236228,27.378637 32.527461,27.378637 z "
       id="path10667" />
    <path
       sodipodi:type="arc"
       style="fill:none;stroke:#000000;stroke-width:1;stroke-miterlimit:4;stroke-dasharray:none;stroke-opacity:1"
       id="path13579"
       sodipodi:cx="32.545456"
       sodipodi:cy="31.545454"
       sodipodi:rx="27.454546"
       sodipodi:ry="27.545454"
       d="M 60.000002 31.545454 A 27.454546 27.545454 0 1 1  5.09091,31.545454 A 27.454546 27.545454 0 1 1  60.000002 31.545454 z"
       transform="matrix(0.9837689,0,0,0.9805222,0.4827933,0.5689836)" />
    <path
       style="fill:url(#linearGradient18459);fill-opacity:1;fill-rule:nonzero;stroke:none;stroke-width:0.25;stroke-linecap:round;stroke-linejoin:miter;stroke-miterlimit:4;stroke-dasharray:none;stroke-opacity:1"
       d="M 31.954546,4 C 19.176179,4 8.4747625,12.884851 5.6732955,24.8125 C 6.5127395,26.320243 7.7085355,27.28125 9.0482955,27.28125 L 54.860796,27.28125 C 56.200555,27.28125 57.396352,26.320243 58.235796,24.8125 C 55.434329,12.884851 44.732913,3.9999999 31.954546,4 z "
       id="rect7221" />
    <g
       id="g3944"
       transform="matrix(0.5029246,0,0,0.4294178,33.394192,1.1986014)">
      <path
         sodipodi:nodetypes="ccccccc"
         id="path6950"
         d="M 2.543309,25.558482 C 1.6433549,31.429454 1.6433549,37.300426 2.543309,43.171398 L 15.25394,43.171398 L 34.319886,60.784313 C 38.449092,46.807762 38.596945,21.7403 34.319886,7.945568 L 15.25394,25.558482 L 2.543309,25.558482 z "
         style="fill:url(#linearGradient30754);fill-opacity:1;fill-rule:evenodd;stroke:#000000;stroke-width:1.22166908px;stroke-linecap:butt;stroke-linejoin:miter;stroke-opacity:1" />
      <path
         sodipodi:nodetypes="cc"
         id="path7841"
         d="M 42.566882,12.029645 C 46.313114,26.571111 46.204247,42.06824 42.566882,56.306106"
         style="fill:none;fill-rule:evenodd;stroke:#4d4d4d;stroke-width:1.26899338px;stroke-linecap:butt;stroke-linejoin:miter;stroke-opacity:1" />
      <path
         sodipodi:nodetypes="cc"
         id="path7843"
         d="M 15.068385,25.637673 C 16.410887,31.567464 16.485297,37.907303 15.068385,43.784313"
         style="fill:none;fill-rule:evenodd;stroke:#000000;stroke-width:1.22166908px;stroke-linecap:butt;stroke-linejoin:miter;stroke-opacity:1" />
      <path
         sodipodi:nodetypes="ccccccccc"
         id="path3961"
         d="M 34.769265,6.5237133 C 35.141283,7.1425817 30.238022,8.1782317 31.826581,9.3353155 L 15.083804,25.016226 L 1.9323862,25.31701 C 1.9323862,30.050648 3.1608424,33.906873 4.6781319,33.906873 L 32.060876,33.906873 C 33.578166,33.906873 36.432909,30.477631 36.432909,25.743989 L 36.092272,9.361661 C 36.092272,8.8771509 35.633623,7.2493055 34.769265,6.5237133 z "
         style="fill:url(#linearGradient12569);fill-opacity:1;fill-rule:nonzero;stroke:none;stroke-width:0.25;stroke-linecap:round;stroke-linejoin:miter;stroke-miterlimit:4;stroke-dasharray:none;stroke-opacity:1" />
      <path
         style="fill:none;fill-rule:evenodd;stroke:#666666;stroke-width:1.16266429px;stroke-linecap:butt;stroke-linejoin:miter;stroke-opacity:1"
         d="M 49.430192,16.158299 C 52.04864,26.824235 51.933394,40.122288 49.430192,51.268362"
         id="path2372"
         sodipodi:nodetypes="cc" />
    </g>
  </g>
</svg>
